<svg width="36" height="36" xmlns="http://www.w3.org/2000/svg" viewBox="0 0 70 70"> <g id="1072690251"> <path d="M35,60c-13.8,0-25-11.2-25-25s11.2-25,25-25c13.8,0,25,11.2,25,25S48.8,60,35,60z M35,12c-12.7,0-23,10.3-23,23
s10.3,23,23,23c12.7,0,23-10.3,23-23S47.7,12,35,12z"></path> 
<path d="M35,14c-11.6,0-21,9.4-21,21s9.4,21,21,21c11.6,0,21-9.4,21-21S46.6,14,35,14z M36,35c0,0.3-0.1,0.5-0.3,0.7l-8,8
C27.5,43.9,27.3,44,27,44c-0.3,0-0.5-0.1-0.7-0.3c-0.4-0.4-0.4-1,0-1.4l7.7-7.7V19c0-0.6,0.4-1,1-1c0.6,0,1,0.4,1,1V35z" id="1306416751"></path> 
</g> 
</svg>