<svg version="1.1" id="Layer_1" xmlns="http://www.w3.org/2000/svg" xmlns:xlink="http://www.w3.org/1999/xlink" x="0px" y="0px" width="70px" height="70px" viewBox="0 0 70 70" enable-background="new 0 0 70 70" xml:space="preserve"> <g id="team_leader_6_"> <g id="businessman_9_"> <path d="M58.829,59.287c-0.479,0-0.868-0.388-0.868-0.867c0-0.125-0.084-12.521-6.461-15.709l-11.254-5.193
			c-0.436-0.201-0.626-0.717-0.426-1.152c0.201-0.435,0.715-0.626,1.152-0.424l11.279,5.205c7.359,3.68,7.444,16.72,7.444,17.273
			C59.696,58.898,59.309,59.287,58.829,59.287L58.829,59.287z"></path> 
 <path d="M11.984,59.287c-0.479,0-0.867-0.388-0.868-0.867c0-0.554,0.078-13.594,7.421-17.261l11.303-5.218
			c0.436-0.2,0.951-0.012,1.152,0.424c0.2,0.436,0.01,0.951-0.425,1.152l-11.279,5.205c-6.369,3.182-6.437,15.571-6.437,15.697
			C12.852,58.898,12.463,59.287,11.984,59.287L11.984,59.287z"></path> 
 <g> <path d="M44.947,46.272c-0.07,0-0.141-0.008-0.21-0.025c-5.886-1.473-8.251-5.443-8.349-5.612
				c-0.241-0.414-0.1-0.944,0.314-1.185c0.41-0.241,0.943-0.103,1.186,0.313c0.018,0.029,1.787,2.951,6.032,4.432l-0.702-5.623
				c-0.06-0.476,0.277-0.909,0.753-0.969c0.48-0.059,0.909,0.278,0.969,0.753l0.867,6.941c0.036,0.283-0.071,0.566-0.285,0.757
				C45.362,46.196,45.156,46.272,44.947,46.272z"></path> 
 <path d="M25.859,46.272c-0.209,0-0.415-0.076-0.575-0.218c-0.214-0.19-0.321-0.474-0.286-0.757l0.868-6.941
				c0.059-0.475,0.495-0.809,0.969-0.753c0.475,0.06,0.813,0.493,0.753,0.969l-0.703,5.623c4.246-1.48,6.015-4.402,6.034-4.435
				c0.244-0.411,0.773-0.55,1.186-0.309c0.413,0.241,0.553,0.771,0.313,1.183c-0.098,0.169-2.463,4.14-8.348,5.612
				C26,46.265,25.93,46.272,25.859,46.272z"></path> 
 <path d="M38.874,59.287c-0.479,0-0.868-0.388-0.868-0.867c0-2.694-1.705-12.769-1.723-12.87c-0.047-0.276,0.043-0.56,0.242-0.758
				c1.561-1.562-0.039-4.005-0.107-4.108c-0.265-0.398-0.159-0.937,0.238-1.203s0.934-0.164,1.201,0.233
				c0.817,1.209,1.836,3.924,0.205,5.958c0.33,1.97,1.679,10.201,1.679,12.748C39.741,58.899,39.354,59.287,38.874,59.287z"></path> 
 <path d="M31.933,59.287c-0.479,0-0.867-0.388-0.867-0.867c0-2.547,1.349-10.779,1.678-12.748
				c-1.63-2.034-0.611-4.749,0.206-5.958c0.269-0.397,0.807-0.502,1.205-0.232c0.397,0.268,0.501,0.807,0.233,1.204
				c-0.067,0.102-1.667,2.545-0.105,4.106c0.198,0.198,0.289,0.481,0.242,0.758C34.506,45.651,32.8,55.727,32.8,58.42
				C32.8,58.899,32.412,59.287,31.933,59.287z"></path> 
</g> 
 <g> <path d="M38.874,34.994c-0.337,0-0.657-0.197-0.798-0.526c-0.188-0.44,0.016-0.95,0.456-1.139
				c4.433-1.899,4.925-5.917,5.446-10.17c0.261-2.13,0.384-4.556-0.662-6.547c-0.864-1.643-2.475-2.931-4.537-3.627
				c-2.125-0.717-4.625-0.718-6.752,0c-2.062,0.697-3.673,1.984-4.536,3.627c-1.047,1.989-0.924,4.416-0.666,6.527
				c0.524,4.272,1.017,8.29,5.449,10.189c0.44,0.188,0.644,0.698,0.455,1.139c-0.188,0.44-0.698,0.647-1.139,0.456
				c-5.349-2.292-5.953-7.213-6.485-11.556c-0.293-2.395-0.42-5.151,0.849-7.564c1.072-2.039,3.031-3.624,5.517-4.462
				c2.48-0.837,5.385-0.836,7.862,0c2.486,0.839,4.445,2.424,5.518,4.462c1.27,2.416,1.143,5.17,0.852,7.547
				c-0.535,4.361-1.138,9.281-6.488,11.573C39.104,34.972,38.988,34.994,38.874,34.994z"></path> 
 <path d="M35.403,41.067c-3.349,0-6.073-2.725-6.073-6.073v-1.735c0-0.479,0.388-0.868,0.868-0.868
				c0.479,0,0.868,0.389,0.868,0.868v1.735c0,2.392,1.946,4.338,4.338,4.338c2.392,0,4.338-1.946,4.338-4.338v-1.735
				c0-0.479,0.388-0.868,0.868-0.868c0.479,0,0.867,0.389,0.867,0.868v1.735C41.477,38.343,38.752,41.067,35.403,41.067z"></path> 
</g> 
</g> 
 <g id="_x3C_Grupo_x3E__13_"> <path d="M8.507,46.272c-0.479,0-0.868-0.388-0.868-0.867V43.67c0.011-0.245,0.293-5.02,3.95-6.85l6.119-2.624
			c0.234-0.1,0.501-0.094,0.73,0.021c0.013,0.007,1.606,0.776,3.95,0.776c0.479,0,0.868,0.388,0.868,0.867s-0.389,0.868-0.868,0.868
			c-2.076,0-3.647-0.516-4.339-0.791l-5.73,2.455c-2.698,1.352-2.944,5.282-2.946,5.322l0.001,1.689
			C9.375,45.885,8.986,46.272,8.507,46.272z"></path> 
 <path d="M19.786,32.391c-0.166,0-0.333-0.047-0.48-0.146c-2.763-1.842-2.925-3.221-3.194-5.507l-0.058-0.483
			c-0.176-1.435-0.25-3.102,0.532-4.591c0.666-1.265,1.875-2.246,3.406-2.764c0.757-0.256,1.586-0.391,2.397-0.391
			c0.479,0,0.868,0.388,0.868,0.868s-0.389,0.868-0.868,0.868c-0.625,0-1.261,0.103-1.842,0.299
			c-1.106,0.375-1.968,1.059-2.426,1.929c-0.56,1.065-0.489,2.403-0.346,3.571l0.059,0.492c0.252,2.146,0.338,2.869,2.433,4.266
			c0.398,0.266,0.506,0.804,0.241,1.203C20.341,32.256,20.066,32.391,19.786,32.391z"></path> 
</g> 
 <g id="_x3C_Grupo_x3E__12_"> <path d="M62.3,46.272c-0.48,0-0.868-0.388-0.868-0.867V43.67l0,0c-0.002,0-0.248-3.926-2.991-5.297l-5.684-2.435
			c-0.691,0.275-2.263,0.791-4.339,0.791c-0.48,0-0.868-0.389-0.868-0.868s0.388-0.867,0.868-0.867c2.37,0,3.935-0.769,3.949-0.776
			c0.229-0.115,0.495-0.121,0.729-0.021L59.17,36.8c3.705,1.851,3.986,6.625,3.996,6.827l0.001,1.778
			C63.167,45.885,62.779,46.272,62.3,46.272z"></path> 
 <path d="M51.021,32.391c-0.28,0-0.556-0.135-0.723-0.386c-0.267-0.399-0.159-0.938,0.24-1.203c2.096-1.397,2.18-2.12,2.433-4.266
			l0.06-0.492c0.143-1.168,0.213-2.506-0.347-3.572c-0.457-0.87-1.318-1.554-2.426-1.929c-0.58-0.196-1.217-0.299-1.841-0.299
			c-0.48,0-0.868-0.388-0.868-0.868s0.388-0.868,0.868-0.868c0.81,0,1.639,0.135,2.396,0.391c1.532,0.518,2.742,1.5,3.406,2.765
			c0.783,1.489,0.709,3.156,0.533,4.59l-0.058,0.483c-0.269,2.286-0.431,3.666-3.193,5.507
			C51.354,32.344,51.187,32.391,51.021,32.391z"></path> 
</g> 
</g> 
</svg>