<svg version="1.1" id="Layer_1" xmlns="http://www.w3.org/2000/svg" xmlns:xlink="http://www.w3.org/1999/xlink" x="0px" y="0px" width="70px" height="70px" viewBox="0 0 70 70" enable-background="new 0 0 70 70" xml:space="preserve"> <g id="team_leader_6_" display="none"> <g id="businessman_9_" display="inline"> <path d="M58.829,59.287c-0.479,0-0.868-0.388-0.868-0.867c0-0.125-0.084-12.521-6.461-15.709l-11.254-5.193
			c-0.436-0.201-0.626-0.717-0.426-1.152c0.201-0.435,0.715-0.626,1.152-0.424l11.279,5.205c7.359,3.68,7.444,16.72,7.444,17.273
			C59.696,58.898,59.309,59.287,58.829,59.287L58.829,59.287z"></path> 
 <path d="M11.984,59.287c-0.479,0-0.867-0.388-0.868-0.867c0-0.554,0.078-13.594,7.421-17.261l11.303-5.218
			c0.436-0.2,0.951-0.012,1.152,0.424c0.2,0.436,0.01,0.951-0.425,1.152l-11.279,5.205c-6.369,3.182-6.437,15.571-6.437,15.697
			C12.852,58.898,12.463,59.287,11.984,59.287L11.984,59.287z"></path> 
 <g> <path d="M44.947,46.272c-0.07,0-0.141-0.008-0.21-0.025c-5.886-1.473-8.251-5.443-8.349-5.612
				c-0.241-0.414-0.1-0.944,0.314-1.185c0.41-0.241,0.943-0.103,1.186,0.313c0.018,0.029,1.787,2.951,6.032,4.432l-0.702-5.623
				c-0.06-0.476,0.277-0.909,0.753-0.969c0.48-0.059,0.909,0.278,0.969,0.753l0.867,6.941c0.036,0.283-0.071,0.566-0.285,0.757
				C45.362,46.196,45.156,46.272,44.947,46.272z"></path> 
 <path d="M25.859,46.272c-0.209,0-0.415-0.076-0.575-0.218c-0.214-0.19-0.321-0.474-0.286-0.757l0.868-6.941
				c0.059-0.475,0.495-0.809,0.969-0.753c0.475,0.06,0.813,0.493,0.753,0.969l-0.703,5.623c4.246-1.48,6.015-4.402,6.034-4.435
				c0.244-0.411,0.773-0.55,1.186-0.309c0.413,0.241,0.553,0.771,0.313,1.183c-0.098,0.169-2.463,4.14-8.348,5.612
				C26,46.265,25.93,46.272,25.859,46.272z"></path> 
 <path d="M38.874,59.287c-0.479,0-0.868-0.388-0.868-0.867c0-2.694-1.705-12.769-1.723-12.87c-0.047-0.276,0.043-0.56,0.242-0.758
				c1.561-1.562-0.039-4.005-0.107-4.108c-0.265-0.398-0.159-0.937,0.238-1.203s0.934-0.164,1.201,0.233
				c0.817,1.209,1.836,3.924,0.205,5.958c0.33,1.97,1.679,10.201,1.679,12.748C39.741,58.899,39.354,59.287,38.874,59.287z"></path> 
 <path d="M31.933,59.287c-0.479,0-0.867-0.388-0.867-0.867c0-2.547,1.349-10.779,1.678-12.748
				c-1.63-2.034-0.611-4.749,0.206-5.958c0.269-0.397,0.807-0.502,1.205-0.232c0.397,0.268,0.501,0.807,0.233,1.204
				c-0.067,0.102-1.667,2.545-0.105,4.106c0.198,0.198,0.289,0.481,0.242,0.758C34.506,45.651,32.8,55.727,32.8,58.42
				C32.8,58.899,32.412,59.287,31.933,59.287z"></path> 
</g> 
 <g> <path d="M38.874,34.994c-0.337,0-0.657-0.197-0.798-0.526c-0.188-0.44,0.016-0.95,0.456-1.139
				c4.433-1.899,4.925-5.917,5.446-10.17c0.261-2.13,0.384-4.556-0.662-6.547c-0.864-1.643-2.475-2.931-4.537-3.627
				c-2.125-0.717-4.625-0.718-6.752,0c-2.062,0.697-3.673,1.984-4.536,3.627c-1.047,1.989-0.924,4.416-0.666,6.527
				c0.524,4.272,1.017,8.29,5.449,10.189c0.44,0.188,0.644,0.698,0.455,1.139c-0.188,0.44-0.698,0.647-1.139,0.456
				c-5.349-2.292-5.953-7.213-6.485-11.556c-0.293-2.395-0.42-5.151,0.849-7.564c1.072-2.039,3.031-3.624,5.517-4.462
				c2.48-0.837,5.385-0.836,7.862,0c2.486,0.839,4.445,2.424,5.518,4.462c1.27,2.416,1.143,5.17,0.852,7.547
				c-0.535,4.361-1.138,9.281-6.488,11.573C39.104,34.972,38.988,34.994,38.874,34.994z"></path> 
 <path d="M35.403,41.067c-3.349,0-6.073-2.725-6.073-6.073v-1.735c0-0.479,0.388-0.868,0.868-0.868
				c0.479,0,0.868,0.389,0.868,0.868v1.735c0,2.392,1.946,4.338,4.338,4.338c2.392,0,4.338-1.946,4.338-4.338v-1.735
				c0-0.479,0.388-0.868,0.868-0.868c0.479,0,0.867,0.389,0.867,0.868v1.735C41.477,38.343,38.752,41.067,35.403,41.067z"></path> 
</g> 
</g> 
 <g id="_x3C_Grupo_x3E__13_" display="inline"> <path d="M8.507,46.272c-0.479,0-0.868-0.388-0.868-0.867V43.67c0.011-0.245,0.293-5.02,3.95-6.85l6.119-2.624
			c0.234-0.1,0.501-0.094,0.73,0.021c0.013,0.007,1.606,0.776,3.95,0.776c0.479,0,0.868,0.388,0.868,0.867s-0.389,0.868-0.868,0.868
			c-2.076,0-3.647-0.516-4.339-0.791l-5.73,2.455c-2.698,1.352-2.944,5.282-2.946,5.322l0.001,1.689
			C9.375,45.885,8.986,46.272,8.507,46.272z"></path> 
 <path d="M19.786,32.391c-0.166,0-0.333-0.047-0.48-0.146c-2.763-1.842-2.925-3.221-3.194-5.507l-0.058-0.483
			c-0.176-1.435-0.25-3.102,0.532-4.591c0.666-1.265,1.875-2.246,3.406-2.764c0.757-0.256,1.586-0.391,2.397-0.391
			c0.479,0,0.868,0.388,0.868,0.868s-0.389,0.868-0.868,0.868c-0.625,0-1.261,0.103-1.842,0.299
			c-1.106,0.375-1.968,1.059-2.426,1.929c-0.56,1.065-0.489,2.403-0.346,3.571l0.059,0.492c0.252,2.146,0.338,2.869,2.433,4.266
			c0.398,0.266,0.506,0.804,0.241,1.203C20.341,32.256,20.066,32.391,19.786,32.391z"></path> 
</g> 
 <g id="_x3C_Grupo_x3E__12_" display="inline"> <path d="M62.3,46.272c-0.48,0-0.868-0.388-0.868-0.867V43.67l0,0c-0.002,0-0.248-3.926-2.991-5.297l-5.684-2.435
			c-0.691,0.275-2.263,0.791-4.339,0.791c-0.48,0-0.868-0.389-0.868-0.868s0.388-0.867,0.868-0.867c2.37,0,3.935-0.769,3.949-0.776
			c0.229-0.115,0.495-0.121,0.729-0.021L59.17,36.8c3.705,1.851,3.986,6.625,3.996,6.827l0.001,1.778
			C63.167,45.885,62.779,46.272,62.3,46.272z"></path> 
 <path d="M51.021,32.391c-0.28,0-0.556-0.135-0.723-0.386c-0.267-0.399-0.159-0.938,0.24-1.203c2.096-1.397,2.18-2.12,2.433-4.266
			l0.06-0.492c0.143-1.168,0.213-2.506-0.347-3.572c-0.457-0.87-1.318-1.554-2.426-1.929c-0.58-0.196-1.217-0.299-1.841-0.299
			c-0.48,0-0.868-0.388-0.868-0.868s0.388-0.868,0.868-0.868c0.81,0,1.639,0.135,2.396,0.391c1.532,0.518,2.742,1.5,3.406,2.765
			c0.783,1.489,0.709,3.156,0.533,4.59l-0.058,0.483c-0.269,2.286-0.431,3.666-3.193,5.507
			C51.354,32.344,51.187,32.391,51.021,32.391z"></path> 
</g> 
</g> 
 <g id="handshake-partnership" display="none"> <g display="inline"> <path d="M26.825,37.904c-1.296,0-2.591-0.35-3.463-1.217c-1.726-1.749-1.776-3.503-1.776-3.698c0-0.135,0.027-0.27,0.081-0.394
			l3.888-9.077c0.484-1.13,1.362-2.038,2.471-2.558c3.134-1.47,7.308-3.263,9.391-3.456c3.168-0.296,11.9-0.058,13.653-0.005
			l4.748-2.849c0.474-0.284,1.087-0.131,1.372,0.343c0.284,0.474,0.131,1.088-0.343,1.372l-5,3
			c-0.165,0.099-0.351,0.153-0.546,0.142c-0.104-0.004-10.37-0.322-13.7-0.012c-1.36,0.126-4.622,1.351-8.727,3.275
			c-0.665,0.312-1.191,0.856-1.481,1.535l-3.788,8.845c0.056,0.351,0.28,1.218,1.174,2.124c1.065,1.059,3.806,0.593,4.646-0.079
			c1.27-1.022,4.073-5.54,5.046-7.194c0.179-0.306,0.507-0.493,0.862-0.493h9c0.553,0,1,0.448,1,1s-0.447,1-1,1h-8.431
			c-0.94,1.566-3.676,6-5.225,7.248C29.828,37.436,28.326,37.904,26.825,37.904z"></path> 
 <path d="M66.331,31.508c-0.461,0-0.876-0.321-0.978-0.791c-0.016-0.074-1.695-7.529-9.677-14.453
			c-0.242-0.21-0.368-0.523-0.341-0.842s0.207-0.606,0.481-0.771l10-6c0.473-0.284,1.089-0.131,1.372,0.343
			c0.284,0.474,0.131,1.088-0.343,1.372l-8.839,5.304c7.639,7.107,9.236,14.316,9.303,14.632c0.113,0.54-0.23,1.068-0.77,1.184
			C66.471,31.501,66.4,31.508,66.331,31.508z"></path> 
 <path d="M60.331,44.51c-0.185,0-0.372-0.051-0.54-0.158c-0.464-0.299-0.599-0.918-0.301-1.383
			c0.554-0.861,2.072-3.399,2.454-4.779c0.07-0.256,0.239-0.473,0.47-0.604l3.424-1.946c0.482-0.271,1.091-0.105,1.363,0.376
			c0.273,0.479,0.105,1.09-0.375,1.363l-3.082,1.752c-0.681,1.967-2.488,4.791-2.57,4.92C60.982,44.348,60.66,44.51,60.331,44.51z"></path> 
 <path d="M55.962,54.547c-1.147,0-2.237-0.418-3.093-1.189L42.71,45.293c-0.433-0.344-0.505-0.973-0.161-1.406
			c0.345-0.432,0.974-0.502,1.405-0.16l10.207,8.105c0.567,0.51,1.241,0.74,1.946,0.711c0.706-0.037,1.354-0.346,1.824-0.869
			c0.967-1.088,0.873-2.762-0.211-3.727L45.668,37.258c-0.412-0.367-0.451-0.999-0.084-1.412c0.365-0.413,0.998-0.452,1.412-0.084
			l12.053,10.69c1.908,1.699,2.076,4.639,0.375,6.555c-0.832,0.926-1.972,1.469-3.212,1.533
			C56.129,54.543,56.045,54.547,55.962,54.547z"></path> 
 <path d="M51.799,60.514c-1.147,0-2.238-0.416-3.095-1.188l-7.975-6.02c-0.44-0.332-0.528-0.959-0.195-1.4
			c0.332-0.439,0.96-0.527,1.4-0.195l8.041,6.074c0.589,0.525,1.264,0.762,1.969,0.725c0.706-0.037,1.354-0.348,1.825-0.871
			c0.162-0.178,0.295-0.371,0.398-0.578c0.25-0.492,0.85-0.691,1.344-0.443c0.493,0.25,0.691,0.85,0.443,1.344
			c-0.186,0.367-0.422,0.709-0.701,1.018c-0.824,0.918-1.964,1.463-3.203,1.529C51.966,60.512,51.882,60.514,51.799,60.514z"></path> 
 <path d="M44.578,62.969c-1.12,0-2.232-0.402-3.111-1.184l-1.782-1.514c-0.421-0.357-0.472-0.988-0.114-1.41
			c0.357-0.42,0.988-0.471,1.409-0.113l1.799,1.527c0.866,0.77,2.097,0.908,3.079,0.361c0.482-0.27,1.092-0.096,1.361,0.385
			c0.27,0.482,0.096,1.092-0.386,1.361C46.129,62.775,45.352,62.969,44.578,62.969z"></path> 
</g> 
 <g display="inline"> <path d="M16.332,19.509c-0.214,0-0.425-0.069-0.6-0.2l-12-9c-0.442-0.331-0.531-0.958-0.2-1.4c0.332-0.44,0.958-0.531,1.4-0.2
			l11.644,8.732c1.644-0.312,7.439-1.309,12.826-0.93c0.551,0.039,0.966,0.516,0.928,1.067c-0.039,0.551-0.509,0.959-1.067,0.928
			c-5.934-0.414-12.659,0.968-12.726,0.981C16.468,19.502,16.4,19.509,16.332,19.509z"></path> 
 <path d="M8.333,42.51c-0.304,0-0.604-0.139-0.801-0.4c-0.766-1.02-3.05-3.127-3.865-3.854c-0.245-0.218-0.368-0.543-0.328-0.869
			s0.238-0.611,0.529-0.764c6.487-3.397,9.475-13.297,9.505-13.396c0.156-0.529,0.715-0.833,1.242-0.676
			c0.53,0.156,0.833,0.712,0.677,1.241c-0.122,0.415-2.903,9.652-9.289,13.888c0.995,0.926,2.459,2.337,3.129,3.229
			c0.332,0.443,0.242,1.07-0.199,1.4C8.752,42.443,8.542,42.51,8.333,42.51z"></path> 
 <g> <path d="M12.165,52.49c-1.194,0-2.333-0.521-3.122-1.434l-0.526-0.645c-1.428-1.719-1.208-4.297,0.497-5.74l3.649-2.734
				c0.698-0.582,1.627-0.92,2.576-0.92c1.198,0,2.332,0.527,3.11,1.445l0.537,0.645c0.207,0.242,0.389,0.52,0.533,0.813
				c0.835,1.684,0.415,3.707-1.023,4.92l-3.651,2.73C14.047,52.152,13.117,52.49,12.165,52.49z M15.239,43.018
				c-0.49,0-0.953,0.17-1.337,0.488l-3.642,2.729c-0.824,0.701-0.935,2.021-0.199,2.906l0.513,0.629
				c0.705,0.813,2.068,0.951,2.931,0.232l3.647-2.729c0.686-0.58,0.898-1.609,0.473-2.469c-0.073-0.148-0.162-0.285-0.269-0.408
				l-0.539-0.646C16.425,43.287,15.848,43.018,15.239,43.018z"></path> 
 <path d="M17.978,56.889c-0.121,0-0.243-0.006-0.365-0.016c-1.098-0.096-2.093-0.609-2.804-1.449l-0.547-0.656
				c-1.135-1.344-1.281-3.268-0.361-4.779c0.287-0.471,0.901-0.623,1.374-0.334c0.472,0.287,0.622,0.902,0.334,1.375
				c-0.472,0.775-0.398,1.762,0.185,2.453l0.546,0.654c0.362,0.428,0.877,0.693,1.445,0.742c0.566,0.047,1.114-0.123,1.543-0.486
				l5.86-4.652c0.874-0.736,0.989-2.09,0.234-2.998l-0.532-0.615c-0.399-0.473-0.974-0.748-1.584-0.764
				c-0.552-0.014-0.988-0.473-0.974-1.025c0.014-0.553,0.459-1.008,1.025-0.973c1.18,0.029,2.293,0.563,3.053,1.463l0.537,0.619
				c1.468,1.768,1.241,4.381-0.494,5.842l-5.857,4.648C19.873,56.553,18.948,56.889,17.978,56.889z"></path> 
 <path d="M23.857,61.426c-0.119,0-0.239-0.006-0.359-0.016c-1.114-0.094-2.124-0.617-2.843-1.469l-0.556-0.666
				c-0.71-0.838-1.053-1.914-0.96-3.023c0.093-1.115,0.614-2.127,1.467-2.848c0.421-0.355,1.053-0.305,1.409,0.119
				c0.356,0.422,0.303,1.053-0.119,1.408c-0.444,0.375-0.715,0.904-0.764,1.486c-0.048,0.576,0.129,1.135,0.499,1.568l0.558,0.67
				c0.371,0.439,0.897,0.711,1.479,0.76c0.576,0.049,1.135-0.129,1.574-0.498l6.539-5.363c0.904-0.764,1.022-2.137,0.251-3.051
				l-0.555-0.668c-0.169-0.199-0.381-0.369-0.62-0.5c-0.485-0.262-0.666-0.869-0.403-1.355c0.263-0.484,0.87-0.666,1.356-0.402
				c0.456,0.248,0.859,0.574,1.197,0.971l0.558,0.672c1.477,1.75,1.252,4.387-0.504,5.871l-6.539,5.363
				C25.775,61.084,24.838,61.426,23.857,61.426z"></path> 
 <path d="M30.955,64.506c-0.12,0-0.24-0.004-0.361-0.016c-1.071-0.094-2.041-0.604-2.729-1.432l-0.515-0.598
				c-0.695-0.826-1.023-1.863-0.929-2.928c0.094-1.072,0.603-2.043,1.433-2.734c0.424-0.354,1.055-0.297,1.408,0.127
				c0.354,0.424,0.296,1.055-0.128,1.408c-0.417,0.35-0.673,0.836-0.721,1.373c-0.046,0.533,0.117,1.049,0.46,1.457l0.52,0.604
				c0.356,0.428,0.842,0.684,1.378,0.73c0.538,0.049,1.053-0.115,1.46-0.459l2.55-2.004c0.821-0.695,0.933-1.967,0.22-2.809
				c-0.356-0.422-0.304-1.053,0.118-1.41c0.423-0.355,1.054-0.303,1.409,0.117c1.424,1.684,1.207,4.219-0.482,5.65l-2.552,2.004
				C32.791,64.182,31.895,64.506,30.955,64.506z"></path> 
</g> 
</g> 
</g> 
 <g display="none"> <g display="inline"> <path fill="#464646" d="M18.447,52.996H9.419c-4.396,0-7.972-3.576-7.972-7.973V26.647c0-3.116,2.536-5.652,5.652-5.652h0.104
			c1.603,0,3.165,0.657,4.286,1.801l5.093,5.199h5.813c2.206,0,4,1.794,4,4s-1.794,4-4,4h-9.562c-0.244,0-0.48-0.089-0.663-0.251
			l-3.386-3c-0.414-0.366-0.452-0.999-0.085-1.412c0.366-0.414,0.998-0.452,1.412-0.085l3.102,2.749h9.182c1.103,0,2-0.897,2-2
			s-0.897-2-2-2h-6.233c-0.269,0-0.526-0.108-0.714-0.3l-5.387-5.499c-0.748-0.763-1.789-1.201-2.857-1.201H7.099
			c-2.014,0-3.652,1.638-3.652,3.652v18.376c0,3.293,2.679,5.973,5.972,5.973h9.028c0.552,0,1,0.447,1,1
			C19.447,52.547,19,52.996,18.447,52.996z"></path> 
 <path fill="#464646" d="M22.446,66.996c-0.448,0-0.855-0.305-0.969-0.758l-4-16c-0.134-0.537,0.192-1.08,0.728-1.213
			c0.534-0.135,1.079,0.191,1.213,0.727l4,16c0.134,0.537-0.192,1.08-0.728,1.213C22.608,66.986,22.527,66.996,22.446,66.996z"></path> 
 <path fill="#464646" d="M29.446,66.996c-0.478,0-0.9-0.344-0.984-0.83l-3.279-18.855c-0.334-1.922-1.991-3.315-3.941-3.315h-8.794
			c-0.552,0-1-0.448-1-1v-8c0-0.552,0.448-1,1-1s1,0.448,1,1v7h7.794c2.924,0,5.41,2.091,5.912,4.972l3.279,18.857
			c0.095,0.543-0.27,1.063-0.814,1.156C29.561,66.99,29.503,66.996,29.446,66.996z"></path> 
 <path fill="#464646" d="M10.447,19.995c-0.552,0-1-0.448-1-1c0-1.731,1.021-2.391,1.84-2.92c1.062-0.686,2.16-1.394,2.16-5.08
			c0-3.131-1.869-5-5-5c-2.757,0-5,2.243-5,5c0,3.449,0.675,4.281,1.169,4.889c0.37,0.456,0.831,1.024,0.831,2.111
			c0,0.552-0.448,1-1,1s-1-0.448-1-1c0-0.377-0.082-0.478-0.384-0.851c-0.852-1.049-1.616-2.309-1.616-6.149c0-3.86,3.14-7,7-7
			c4.187,0,7,2.813,7,7c0,4.775-1.85,5.97-3.075,6.76c-0.749,0.483-0.925,0.621-0.925,1.24C11.447,19.547,11,19.995,10.447,19.995z"></path> 
</g> 
 <g display="inline"> <path fill="#464646" d="M57.476,52.996h-9.028c-0.553,0-1-0.449-1-1c0-0.553,0.447-1,1-1h9.028c3.293,0,5.972-2.68,5.972-5.973
			V26.647c0-2.014-1.638-3.652-3.651-3.652h-0.104c-1.068,0-2.109,0.438-2.857,1.201l-5.386,5.499c-0.188,0.192-0.446,0.3-0.715,0.3
			H44.5c-1.103,0-2,0.897-2,2s0.897,2,2,2h9.183l3.102-2.749c0.414-0.365,1.046-0.328,1.411,0.085
			c0.366,0.413,0.328,1.045-0.085,1.412l-3.386,3c-0.183,0.162-0.419,0.251-0.663,0.251H44.5c-2.206,0-4-1.794-4-4s1.794-4,4-4
			h5.813l5.092-5.199c1.122-1.145,2.684-1.801,4.286-1.801h0.104c3.116,0,5.651,2.536,5.651,5.652v18.376
			C65.447,49.42,61.871,52.996,57.476,52.996z"></path> 
 <path fill="#464646" d="M44.448,66.996c-0.08,0-0.162-0.01-0.243-0.031c-0.536-0.133-0.862-0.676-0.728-1.213l4-16
			c0.134-0.535,0.676-0.863,1.212-0.727c0.536,0.133,0.862,0.676,0.728,1.213l-4,16C45.304,66.691,44.896,66.996,44.448,66.996z"></path> 
 <path fill="#464646" d="M37.448,66.996c-0.057,0-0.114-0.006-0.172-0.016c-0.545-0.094-0.909-0.613-0.814-1.156l3.279-18.857
			c0.502-2.881,2.987-4.972,5.911-4.972h7.795v-7c0-0.552,0.447-1,1-1s1,0.448,1,1v8c0,0.552-0.447,1-1,1h-8.795
			c-1.949,0-3.606,1.394-3.94,3.315l-3.279,18.855C38.348,66.652,37.926,66.996,37.448,66.996z"></path> 
 <path fill="#464646" d="M56.447,19.995c-0.553,0-1-0.448-1-1c0-0.619-0.177-0.756-0.926-1.24c-1.224-0.791-3.074-1.985-3.074-6.76
			c0-4.187,2.813-7,7-7c3.859,0,7,3.14,7,7c0,3.84-0.765,5.1-1.616,6.149c-0.303,0.373-0.384,0.473-0.384,0.851c0,0.552-0.447,1-1,1
			s-1-0.448-1-1c0-1.087,0.461-1.655,0.831-2.111c0.493-0.608,1.169-1.44,1.169-4.889c0-2.757-2.243-5-5-5c-3.131,0-5,1.869-5,5
			c0,3.686,1.098,4.395,2.159,5.08c0.82,0.529,1.841,1.188,1.841,2.92C57.447,19.547,57,19.995,56.447,19.995z"></path> 
</g> 
 <path display="inline" fill="#464646" d="M52.447,35.995h-40c-0.552,0-1-0.448-1-1s0.448-1,1-1h40c0.553,0,1,0.448,1,1
		S53,35.995,52.447,35.995z"></path> 
 <g id="executive_4_" display="inline"> <path fill="#464646" d="M36.447,31.995c-0.553,0-1-0.448-1-1c0-1.255-0.691-3.827-0.958-4.712
			c-0.073-0.244-0.05-0.507,0.063-0.735c0.511-1.021,0.698-3.335,0.188-3.846c-0.391-0.391-0.391-1.023,0-1.414s1.023-0.391,1.414,0
			c1.383,1.383,0.88,4.374,0.353,5.77c0.264,0.928,0.94,3.454,0.94,4.937C37.447,31.547,37,31.995,36.447,31.995z"></path> 
 <path fill="#464646" d="M46.448,25.995c-0.334,0-0.661-0.167-0.851-0.473c-0.6-0.965-1.66-2.197-2.571-2.62l-4.563-1.824
			c-0.791,0.316-2.608,0.917-5.016,0.917s-4.225-0.6-5.016-0.917l-4.613,1.846c-0.862,0.402-1.923,1.633-2.522,2.599
			c-0.292,0.47-0.909,0.613-1.377,0.322c-0.469-0.292-0.614-0.908-0.322-1.377c0.16-0.257,1.612-2.536,3.429-3.38l5.049-2.021
			c0.266-0.104,0.563-0.094,0.819,0.034c0.015,0.007,1.852,0.895,4.553,0.895c2.732,0,4.535-0.885,4.553-0.895
			c0.256-0.128,0.555-0.139,0.818-0.034l5,2c1.866,0.865,3.318,3.144,3.479,3.401c0.291,0.469,0.147,1.085-0.322,1.377
			C46.811,25.947,46.628,25.995,46.448,25.995z"></path> 
 <path fill="#464646" d="M30.447,31.995c-0.552,0-1-0.448-1-1c0-1.483,0.676-4.008,0.94-4.937c-0.528-1.396-1.031-4.386,0.353-5.77
			c0.391-0.391,1.023-0.391,1.414,0s0.391,1.023,0,1.414c-0.511,0.511-0.324,2.824,0.188,3.846c0.114,0.228,0.137,0.491,0.063,0.735
			c-0.266,0.886-0.958,3.459-0.958,4.712C31.447,31.547,31,31.995,30.447,31.995z"></path> 
 <path fill="#464646" d="M30.446,17.995c-0.19,0-0.383-0.054-0.554-0.168c-2.823-1.882-2.979-3.407-3.193-5.518
			c-0.03-0.293-0.062-0.607-0.104-0.944c-0.189-1.546-0.269-3.344,0.578-4.955c0.721-1.371,2.03-2.434,3.687-2.993
			c1.633-0.552,3.545-0.551,5.175,0C37.691,3.977,39,5.04,39.721,6.41c0.848,1.61,0.768,3.408,0.578,4.955
			c-0.041,0.339-0.073,0.653-0.104,0.947c-0.216,2.11-0.371,3.634-3.193,5.515c-0.461,0.306-1.082,0.182-1.387-0.277
			c-0.307-0.459-0.183-1.081,0.277-1.387c2.038-1.358,2.112-2.092,2.313-4.054c0.031-0.307,0.064-0.635,0.108-0.988
			c0.151-1.239,0.228-2.657-0.363-3.78c-0.481-0.915-1.389-1.635-2.557-2.029c-1.223-0.414-2.669-0.415-3.895,0
			c-1.168,0.394-2.076,1.115-2.556,2.029c-0.59,1.123-0.515,2.542-0.363,3.781c0.043,0.352,0.076,0.679,0.107,0.985
			c0.201,1.963,0.275,2.698,2.313,4.057c0.459,0.306,0.583,0.927,0.277,1.387C31.086,17.839,30.77,17.995,30.446,17.995z"></path> 
</g> 
</g> 
 <g> <path d="M32.162,57.514c-12.941,0-23.469-10.528-23.469-23.469s10.528-23.469,23.469-23.469c12.94,0,23.469,10.528,23.469,23.469
		S45.103,57.514,32.162,57.514z M32.162,12.252c-12.016,0-21.792,9.776-21.792,21.792c0,12.017,9.776,21.793,21.792,21.793
		c12.017,0,21.792-9.776,21.792-21.793C53.954,22.029,44.179,12.252,32.162,12.252z"></path> 
 <path d="M53.79,64.225c-2.191,0-4.382-0.834-6.051-2.502l-6.292-6.294l1.186-1.186l6.292,6.294c2.685,2.682,7.047,2.682,9.729,0
		c2.682-2.682,2.682-7.047,0-9.729l-6.293-6.292l1.186-1.186l6.293,6.292c3.335,3.337,3.335,8.765,0,12.101
		C58.172,63.391,55.981,64.225,53.79,64.225z"></path> 
 <g id="handshake-partnership_1_"> <g> <path d="M28.323,36.152c-0.654,0.001-1.306-0.176-1.746-0.613c-0.871-0.88-0.896-1.766-0.896-1.864
				c0-0.068,0.015-0.137,0.041-0.199l1.962-4.577c0.243-0.57,0.686-1.028,1.245-1.29c1.58-0.741,3.686-1.645,4.735-1.742
				c1.598-0.149,6.001-0.029,6.885-0.002l2.395-1.437c0.239-0.143,0.549-0.066,0.692,0.174c0.144,0.238,0.065,0.548-0.173,0.691
				l-2.521,1.512c-0.084,0.05-0.179,0.078-0.275,0.072c-0.053-0.002-5.229-0.163-6.908-0.006c-0.687,0.063-2.331,0.681-4.401,1.652
				c-0.335,0.156-0.601,0.431-0.747,0.773l-1.911,4.46c0.029,0.177,0.142,0.615,0.592,1.072c0.538,0.532,1.919,0.298,2.343-0.04
				c0.64-0.517,2.054-2.794,2.544-3.628c0.09-0.154,0.256-0.249,0.435-0.249h4.538c0.279,0,0.505,0.226,0.505,0.504
				s-0.226,0.504-0.505,0.504H32.9c-0.475,0.79-1.854,3.025-2.636,3.653C29.837,35.917,29.08,36.152,28.323,36.152z"></path> 
 <path d="M48.243,32.927c-0.231,0-0.441-0.162-0.492-0.398c-0.006-0.037-0.854-3.796-4.879-7.288
				c-0.122-0.105-0.187-0.263-0.173-0.425c0.013-0.161,0.104-0.305,0.243-0.389l5.042-3.025c0.238-0.143,0.549-0.067,0.693,0.173
				c0.142,0.239,0.064,0.548-0.174,0.691l-4.457,2.674c3.851,3.584,4.657,7.219,4.69,7.378c0.057,0.272-0.117,0.539-0.387,0.598
				C48.313,32.924,48.279,32.927,48.243,32.927z"></path> 
 <path d="M45.219,39.484c-0.094,0-0.188-0.027-0.272-0.081c-0.234-0.149-0.303-0.462-0.151-0.697
				c0.279-0.435,1.045-1.715,1.235-2.409c0.038-0.129,0.122-0.238,0.238-0.305l1.728-0.981c0.242-0.137,0.55-0.053,0.686,0.189
				c0.138,0.242,0.053,0.551-0.188,0.688l-1.554,0.884c-0.345,0.992-1.256,2.417-1.295,2.48
				C45.548,39.402,45.385,39.484,45.219,39.484z"></path> 
 <path d="M43.016,44.545c-0.58,0-1.129-0.21-1.56-0.6l-5.122-4.067c-0.219-0.174-0.255-0.491-0.082-0.709
				c0.174-0.219,0.49-0.253,0.709-0.08l5.146,4.087c0.285,0.258,0.625,0.375,0.98,0.357c0.358-0.019,0.684-0.175,0.919-0.437
				c0.489-0.549,0.442-1.394-0.105-1.88l-6.077-5.39c-0.207-0.186-0.227-0.503-0.041-0.713c0.184-0.207,0.502-0.228,0.71-0.041
				l6.078,5.389c0.963,0.857,1.048,2.341,0.189,3.307c-0.419,0.467-0.993,0.74-1.62,0.771
				C43.101,44.542,43.057,44.545,43.016,44.545z"></path> 
 <path d="M40.916,47.554c-0.579,0-1.128-0.211-1.561-0.6l-4.021-3.034c-0.222-0.168-0.266-0.484-0.099-0.704
				c0.169-0.226,0.485-0.268,0.707-0.102l4.054,3.063c0.299,0.265,0.638,0.383,0.994,0.365c0.354-0.018,0.684-0.175,0.921-0.44
				c0.081-0.088,0.147-0.186,0.199-0.292c0.127-0.248,0.428-0.347,0.678-0.222c0.25,0.126,0.348,0.429,0.224,0.677
				c-0.093,0.187-0.213,0.359-0.353,0.514c-0.417,0.463-0.99,0.737-1.615,0.771C41.001,47.553,40.959,47.554,40.916,47.554z"></path> 
 <path d="M37.275,48.791c-0.565,0-1.127-0.203-1.569-0.597l-0.898-0.764c-0.212-0.18-0.239-0.497-0.059-0.71
				c0.181-0.211,0.5-0.238,0.711-0.058l0.906,0.771c0.438,0.387,1.059,0.458,1.553,0.183c0.244-0.136,0.552-0.049,0.687,0.193
				c0.136,0.244,0.048,0.551-0.194,0.687C38.056,48.694,37.664,48.791,37.275,48.791z"></path> 
</g> 
 <g> <path d="M23.032,26.877c-0.108,0-0.214-0.035-0.302-0.101l-6.051-4.538c-0.223-0.167-0.268-0.482-0.102-0.706
				c0.168-0.222,0.483-0.267,0.707-0.1l5.872,4.403c0.829-0.157,3.75-0.66,6.467-0.469c0.278,0.02,0.487,0.26,0.467,0.538
				c-0.019,0.278-0.255,0.484-0.537,0.469c-2.992-0.21-6.383,0.487-6.417,0.494C23.101,26.875,23.066,26.877,23.032,26.877z"></path> 
 <path d="M19,38.475c-0.154,0-0.306-0.068-0.404-0.201c-0.387-0.516-1.538-1.577-1.949-1.943
				c-0.124-0.109-0.186-0.273-0.166-0.438c0.021-0.165,0.119-0.309,0.266-0.386c3.272-1.713,4.778-6.705,4.793-6.755
				c0.079-0.266,0.36-0.42,0.626-0.342c0.267,0.08,0.419,0.359,0.34,0.627c-0.061,0.208-1.463,4.867-4.683,7.003
				c0.502,0.466,1.24,1.179,1.578,1.628c0.167,0.223,0.122,0.54-0.101,0.707C19.211,38.442,19.104,38.475,19,38.475z"></path> 
 <g> <path d="M20.931,43.509c-0.602,0-1.176-0.264-1.574-0.725l-0.266-0.323c-0.72-0.867-0.609-2.167,0.251-2.896l1.839-1.38
					c0.352-0.291,0.821-0.462,1.299-0.462c0.604,0,1.177,0.266,1.568,0.729l0.27,0.324c0.105,0.122,0.196,0.262,0.27,0.41
					c0.421,0.849,0.209,1.869-0.517,2.479l-1.84,1.379C21.881,43.338,21.412,43.509,20.931,43.509z M22.481,38.732
					c-0.248,0-0.481,0.083-0.674,0.246l-1.836,1.375c-0.416,0.353-0.471,1.019-0.101,1.465l0.259,0.316
					c0.355,0.411,1.043,0.481,1.477,0.118l1.84-1.375c0.345-0.292,0.453-0.813,0.238-1.246c-0.037-0.074-0.082-0.143-0.135-0.205
					l-0.272-0.325C23.079,38.867,22.789,38.732,22.481,38.732z"></path> 
 <path d="M23.862,45.726c-0.061,0-0.122-0.003-0.184-0.009c-0.554-0.047-1.055-0.306-1.414-0.729l-0.275-0.33
					c-0.572-0.679-0.646-1.648-0.182-2.41c0.145-0.238,0.455-0.315,0.692-0.17c0.239,0.146,0.313,0.456,0.168,0.692
					c-0.238,0.393-0.2,0.89,0.093,1.239l0.276,0.329c0.183,0.216,0.442,0.35,0.728,0.375c0.286,0.023,0.563-0.063,0.78-0.246
					l2.954-2.345c0.441-0.372,0.5-1.057,0.119-1.514l-0.268-0.31c-0.201-0.238-0.492-0.376-0.798-0.385
					c-0.279-0.006-0.499-0.238-0.492-0.517s0.232-0.508,0.517-0.491c0.596,0.015,1.157,0.284,1.541,0.738l0.271,0.313
					c0.74,0.892,0.626,2.207-0.25,2.944l-2.952,2.346C24.818,45.556,24.351,45.726,23.862,45.726z"></path> 
 <path d="M26.827,48.013c-0.061,0-0.12-0.003-0.181-0.007c-0.562-0.047-1.071-0.31-1.434-0.742l-0.281-0.336
					c-0.357-0.42-0.531-0.964-0.484-1.522c0.047-0.564,0.31-1.074,0.74-1.437c0.213-0.181,0.531-0.151,0.711,0.061
					c0.179,0.214,0.152,0.53-0.061,0.709c-0.224,0.189-0.36,0.455-0.386,0.749c-0.023,0.292,0.066,0.572,0.252,0.793l0.282,0.335
					c0.186,0.223,0.452,0.36,0.746,0.385c0.29,0.023,0.572-0.065,0.793-0.253l3.297-2.702c0.456-0.386,0.516-1.078,0.126-1.539
					l-0.279-0.336c-0.086-0.101-0.192-0.188-0.313-0.253c-0.246-0.133-0.336-0.438-0.203-0.684c0.133-0.245,0.438-0.335,0.683-0.203
					c0.23,0.124,0.433,0.289,0.604,0.49l0.281,0.338c0.745,0.883,0.632,2.213-0.254,2.963l-3.297,2.703
					C27.793,47.842,27.32,48.013,26.827,48.013z"></path> 
 <path d="M30.406,49.567c-0.061,0-0.121-0.001-0.182-0.009c-0.541-0.048-1.03-0.304-1.376-0.722l-0.26-0.302
					c-0.351-0.416-0.516-0.94-0.469-1.476c0.048-0.542,0.305-1.03,0.723-1.38c0.215-0.179,0.533-0.148,0.71,0.066
					c0.179,0.212,0.148,0.53-0.065,0.708c-0.21,0.176-0.339,0.422-0.363,0.691c-0.023,0.269,0.059,0.529,0.231,0.735l0.262,0.305
					c0.181,0.217,0.425,0.345,0.695,0.369c0.271,0.025,0.53-0.059,0.737-0.233l1.285-1.009c0.414-0.352,0.471-0.992,0.111-1.417
					c-0.179-0.212-0.153-0.53,0.059-0.71c0.213-0.18,0.531-0.153,0.711,0.06c0.718,0.85,0.609,2.128-0.244,2.849l-1.287,1.009
					C31.332,49.404,30.88,49.567,30.406,49.567z"></path> 
</g> 
</g> 
</g> 
</g> 
</svg>