<svg id="Layer_1" data-name="Layer 1" xmlns="http://www.w3.org/2000/svg" viewBox="0 0 200 134"><defs><style>.cls-1{fill:#9fad3b;}.cls-2{fill:#8f9910;}.cls-3{fill:#fff;}</style></defs><title>invoice_d</title><rect class="cls-1" width="200" height="134" rx="6.80794"/><path class="cls-2" d="M95.85,128.18366h16.9984a2.7565,2.7565,0,1,0,0-5.513H95.85a2.7565,2.7565,0,1,0,0,5.513Z" transform="translate(-60 -53)"/><path class="cls-2" d="M125.71208,135.53432H95.85a2.7565,2.7565,0,1,0,0,5.513h29.86206a2.7565,2.7565,0,1,0,0-5.513Z" transform="translate(-60 -53)"/><path class="cls-2" d="M140.50529,98.32159a2.66929,2.66929,0,0,0-2.94026.45942l-7.7182,6.79936-7.7182-6.89125a2.79479,2.79479,0,0,0-3.67533,0l-7.7182,6.89125-7.71819-6.89124a2.79477,2.79477,0,0,0-3.67533,0l-7.7182,6.89124L83.90518,98.781a2.66929,2.66929,0,0,0-2.94026-.45942,2.79765,2.79765,0,0,0-1.6539,2.48085V149.96H69.93893a2.7073,2.7073,0,0,0-2.7565,2.7565V159.424a13.16618,13.16618,0,0,0,12.67989,13.13931h49.15756A13.13657,13.13657,0,0,0,142.15919,159.424V100.89432A2.8274,2.8274,0,0,0,140.50529,98.32159ZM80.32174,167.05028a7.72692,7.72692,0,0,1-7.62631-7.62631v-3.951h43.18514v3.951a12.833,12.833,0,0,0,2.48085,7.62631H80.32174Zm56.32445-7.6263a7.62632,7.62632,0,0,1-15.25263,0v-6.70749a2.7073,2.7073,0,0,0-2.7565-2.7565H84.824V106.95862l4.9617,4.4104a2.79479,2.79479,0,0,0,3.67533,0l7.71819-6.89125,7.7182,6.89125a2.79479,2.79479,0,0,0,3.67533,0l7.7182-6.89125,7.71819,6.89125a2.79414,2.79414,0,0,0,3.67533,0l4.9617-4.4104Z" transform="translate(-60 -53)"/><path class="cls-3" d="M111.59961,131h-4.69824V106.82764h4.69824Z" transform="translate(-60 -53)"/><path class="cls-3" d="M132.43457,131h-4.69824l-7.3877-15.45654-.09961.0332V131h-4.73144V106.82764H120.249l7.3877,15.43994.09961-.0332V106.82764h4.69824Z" transform="translate(-60 -53)"/><path class="cls-3" d="M143.4082,124.82422l.18262.92969h.09961l.18262-.88086,4.03418-18.04541h4.96386L146.11426,131H141.2002l-6.75684-24.17236h4.96387Z" transform="translate(-60 -53)"/><path class="cls-3" d="M170.93359,122.31641A9.1647,9.1647,0,0,1,168.626,128.957a9.06549,9.06549,0,0,1-12.26856,0,9.2033,9.2033,0,0,1-2.291-6.64062v-6.773a9.27042,9.27042,0,0,1,2.291-6.64893,8.02434,8.02434,0,0,1,6.10938-2.41553,8.13459,8.13459,0,0,1,6.14258,2.41553,9.19312,9.19312,0,0,1,2.32421,6.64893Zm-4.69824-6.82422a6.63848,6.63848,0,0,0-.96289-3.9209,3.25389,3.25389,0,0,0-2.80566-1.32373,3.1892,3.1892,0,0,0-2.78907,1.31543,6.81056,6.81056,0,0,0-.92968,3.9292v6.82617a6.75567,6.75567,0,0,0,.94629,3.94629,3.61449,3.61449,0,0,0,5.57812,0,6.66767,6.66767,0,0,0,.96289-3.94629Z" transform="translate(-60 -53)"/><path class="cls-3" d="M178.95215,131h-4.69824V106.82764h4.69824Z" transform="translate(-60 -53)"/><path class="cls-3" d="M198.02734,123.21289l.04981.09961q.03222,3.98438-1.89258,6.00977a7.46877,7.46877,0,0,1-5.67773,2.02539,7.98369,7.98369,0,0,1-5.99317-2.29883,8.949,8.949,0,0,1-2.24121-6.51563V115.311a9.174,9.174,0,0,1,2.166-6.51612,7.5668,7.5668,0,0,1,5.80273-2.31592,7.683,7.683,0,0,1,5.81836,2.0586q1.96728,2.05884,2.03418,6.09277l-.0498.09961h-4.54883a5.64227,5.64227,0,0,0-.64746-3.43262,2.98348,2.98348,0,0,0-2.60645-1.0498,2.77011,2.77011,0,0,0-2.44043,1.24658,6.76871,6.76871,0,0,0-.84668,3.772v7.26123a6.49711,6.49711,0,0,0,.9043,3.80664,3.06925,3.06925,0,0,0,2.64844,1.2461,2.67484,2.67484,0,0,0,2.38183-.98828,5.90742,5.90742,0,0,0,.58985-3.37891Z" transform="translate(-60 -53)"/><path class="cls-3" d="M213.78223,120.39111h-8.11817v6.83936H215.21V131H200.93262V106.82764h14.24414v3.76855h-9.5127v6.02637h8.11817Z" transform="translate(-60 -53)"/></svg>